M48
; DRILL file {KiCad (5.99.0-10216-g675444a646)} date Sun Apr 25 23:19:08 2021
; FORMAT={-:-/ absolute / inch / decimal}
; #@! TF.CreationDate,2021-04-25T23:19:08+08:00
; #@! TF.GenerationSoftware,Kicad,Pcbnew,(5.99.0-10216-g675444a646)
; #@! TF.FileFunction,Plated,1,2,PTH
FMAT,2
INCH
; #@! TA.AperFunction,Plated,PTH,ViaDrill
T1C0.0157
; #@! TA.AperFunction,Plated,PTH,ComponentDrill
T2C0.0236
; #@! TA.AperFunction,Plated,PTH,ComponentDrill
T3C0.0335
; #@! TA.AperFunction,Plated,PTH,ComponentDrill
T4C0.0394
; #@! TA.AperFunction,Plated,PTH,ComponentDrill
T5C0.0590
%
G90
G05
T1
X0.375Y-2.0391
X0.5625Y-1.3828
X0.5625Y-1.4766
X0.5625Y-1.5234
X0.5779Y-0.6094
X0.6094Y-0.6094
X0.6563Y-1.3828
X0.6563Y-1.4543
X0.688Y-0.3984
X0.7031Y-1.5469
X0.7185Y-0.4922
X0.7434Y-1.257
X0.75Y-0.3996
X0.75Y-0.4922
X0.75Y-0.5859
X0.75Y-1.4701
X0.75Y-1.9922
X0.7734Y-0.375
X0.7734Y-1.1945
X0.7927Y-0.801
X0.8106Y-0.7751
X0.818Y-1.7367
X0.8203Y-2.2031
X0.8281Y-0.3246
X0.8438Y-0.5871
X0.8438Y-0.7734
X0.8438Y-1.3828
X0.8483Y-1.2442
X0.8765Y-1.5234
X0.8906Y-1.7813
X0.9141Y-0.6363
X0.9375Y-0.6563
X0.9481Y-3.0268
X0.9609Y-3.4688
X0.982Y-1.4063
X0.9981Y-1.7093
X0.9984Y-3.0703
X1.0078Y-1.5691
X1.0078Y-2.1094
X1.015Y-2.5547
X1.0313Y-1.7109
X1.0547Y-1.5703
X1.0781Y-0.6563
X1.0781Y-0.7031
X1.0781Y-0.75
X1.0781Y-1.5
X1.1347Y-1.6035
X1.1484Y-1.8281
X1.2422Y-2.0156
X1.2656Y-1.5234
X1.3043Y-1.3746
X1.3043Y-1.5621
X1.3125Y-1.7109
X1.3359Y-2.1328
X1.3484Y-1.5803
X1.3852Y-1.6758
X1.4314Y-1.7924
X1.4766Y-1.6641
X1.5Y-1.7109
X1.5234Y-1.2656
X1.5938Y-1.3828
X1.6172Y-1.4869
X1.6781Y-1.6875
X1.6871Y-0.4691
X1.7109Y-1.2891
X1.8981Y-1.2191
X1.8984Y-2.0183
X1.9219Y-1.9937
X2.35Y-1.4938
X3.1148Y-1.5023
X3.9586Y-1.5961
X4.7875Y-1.9984
X5.2263Y-2.3613
X6.2875Y-2.0094
X7.0164Y-2.0711
X7.7547Y-2.0828
X8.2338Y-2.3537
X9.1609Y-2.1766
X10.0375Y-2.0453
X10.2562Y-2.0297
X10.2809Y-1.9937
T3
X0.2781Y-1.3531
X0.2781Y-1.4531
X0.2781Y-1.5531
X0.3781Y-1.3531
X0.3781Y-1.4531
X0.3781Y-1.5531
T4
X0.1781Y-1.4531
T5
X0.225Y-0.275
X0.3187Y-1.775
X0.3187Y-2.525
X0.3187Y-3.275
X0.4125Y-1.025
X0.4125Y-3.275
X0.475Y-0.175
X0.5062Y-1.775
X0.5687Y-1.675
X0.5687Y-2.425
X0.5687Y-3.175
X0.6625Y-0.925
X0.6625Y-3.175
X0.6937Y-2.525
X0.7562Y-1.675
X0.9437Y-2.425
X0.975Y-0.275
X1.1625Y-2.525
X1.225Y-0.175
X1.2562Y-3.275
X1.35Y-1.025
X1.35Y-3.275
X1.4125Y-2.425
X1.5062Y-3.175
X1.5375Y-1.775
X1.6Y-0.925
X1.6Y-3.175
X1.725Y-0.275
X1.7875Y-1.675
X1.9125Y-2.525
X1.975Y-0.175
X2.1Y-1.025
X2.1625Y-2.425
X2.1938Y-3.275
X2.2875Y-1.775
X2.2875Y-3.275
X2.35Y-0.925
X2.4438Y-3.175
X2.475Y-0.275
X2.5375Y-1.675
X2.5375Y-3.175
X2.6625Y-2.525
X2.725Y-0.175
X2.85Y-1.025
X2.9125Y-2.425
X3.0375Y-1.775
X3.1Y-0.925
X3.225Y-0.275
X3.2875Y-1.675
X3.4125Y-2.525
X3.475Y-0.175
X3.6Y-1.025
X3.6625Y-2.425
X3.7875Y-1.775
X3.85Y-0.925
X3.975Y-0.275
X4.0375Y-1.675
X4.1625Y-2.525
X4.225Y-0.175
X4.35Y-1.025
X4.4125Y-2.425
X4.5375Y-1.775
X4.6Y-0.925
X4.725Y-0.275
X4.7875Y-1.675
X4.9125Y-2.525
X4.975Y-0.175
X5.0062Y-3.275
X5.1Y-1.025
X5.1625Y-2.425
X5.2562Y-3.175
X5.2875Y-1.775
X5.35Y-0.925
X5.475Y-0.275
X5.475Y-3.275
X5.5375Y-1.675
X5.6625Y-2.525
X5.725Y-0.175
X5.725Y-3.175
X5.85Y-1.025
X5.9125Y-2.425
X6.0375Y-1.775
X6.1Y-0.925
X6.225Y-0.275
X6.2875Y-1.675
X6.4125Y-2.525
X6.475Y-0.175
X6.6Y-1.025
X6.6625Y-2.425
X6.7875Y-1.775
X6.85Y-0.925
X6.975Y-0.275
X7.0375Y-1.675
X7.1625Y-2.525
X7.225Y-0.175
X7.35Y-1.025
X7.4125Y-2.425
X7.5375Y-1.775
X7.6Y-0.925
X7.725Y-0.275
X7.7875Y-1.675
X7.8187Y-3.275
X7.9125Y-2.525
X7.975Y-0.175
X8.0687Y-3.175
X8.1Y-1.025
X8.1625Y-2.425
X8.2875Y-1.775
X8.35Y-0.925
X8.475Y-0.275
X8.5375Y-1.675
X8.6625Y-2.525
X8.6625Y-3.275
X8.725Y-0.175
X8.7562Y-3.275
X8.85Y-1.025
X8.9125Y-2.425
X8.9125Y-3.175
X9.0062Y-3.175
X9.0375Y-1.775
X9.1Y-0.925
X9.225Y-0.275
X9.2875Y-1.675
X9.475Y-0.175
X9.6Y-1.025
X9.6Y-3.275
X9.6937Y-3.275
X9.6938Y-2.525
X9.7875Y-1.775
X9.85Y-0.925
X9.85Y-3.175
X9.9437Y-3.175
X9.9438Y-2.425
X9.975Y-0.275
X10.0375Y-1.675
X10.0688Y-2.525
X10.225Y-0.175
X10.2562Y-1.775
X10.3188Y-2.425
X10.35Y-0.275
X10.5062Y-1.675
X10.5375Y-1.025
X10.5375Y-3.275
X10.6Y-0.175
X10.6312Y-3.275
X10.6313Y-1.4
X10.725Y-0.275
X10.725Y-2.525
X10.7875Y-0.925
X10.7875Y-3.175
X10.8812Y-3.175
X10.8813Y-1.3
X10.975Y-0.175
X10.975Y-2.425
T2
G00X0.5609Y-0.0661
M15
G01X0.5609Y-0.0898
M16
G05
G00X0.5609Y-0.2209
M15
G01X0.5609Y-0.2642
M16
G05
G00X0.9011Y-0.0661
M15
G01X0.9011Y-0.0898
M16
G05
G00X0.9011Y-0.2209
M15
G01X0.9011Y-0.2642
M16
G05
T0
M30
